<?xml version="1.0" encoding="UTF-8"?>
<svg id="Layer_2" data-name="Layer 2" xmlns="http://www.w3.org/2000/svg" viewBox="0 0 183.4 91.53">
  <defs>
    <style>
      .cls-1 {
        fill: #231f20;
        font-size: 72px;
      }

      .cls-1, .cls-2 {
        font-family: MadimiOne-Regular, 'Madimi One';
      }

      .cls-3 {
        letter-spacing: .44em;
      }

      .cls-4 {
        letter-spacing: .08em;
      }

      .cls-5 {
        letter-spacing: .09em;
      }

      .cls-6 {
        letter-spacing: .45em;
      }

      .cls-7 {
        letter-spacing: .45em;
      }

      .cls-8, .cls-2 {
        fill: #61bb49;
      }

      .cls-2 {
        font-size: 21px;
      }

      .cls-9 {
        letter-spacing: .43em;
      }
    </style>
  </defs>
  <g id="Layer_1_copy" data-name="Layer 1 copy">
    <g>
      <path class="cls-8" d="M40.82,0H11.89C5.32,0,0,5.32,0,11.89v52.71c0,6.57,5.32,11.89,11.89,11.89h28.93c6.57,0,11.89-5.32,11.89-11.89V11.89c0-6.57-5.32-11.89-11.89-11.89ZM23.48,33.75c1.25-.41,2.47-.61,3.67-.61h7.13c1.34,0,2.39,.41,3.13,1.22,.74,.82,1.12,1.94,1.12,3.38s-.38,2.59-1.15,3.46c-.77,.86-1.8,1.3-3.1,1.3h-7.7c-2.21,0-3.7,.44-4.46,1.33-.77,.89-1.15,2.68-1.15,5.36v4.75h16.27c1.78,0,3.06,.38,3.85,1.15,.79,.77,1.19,2.02,1.19,3.74,0,1.63-.38,2.81-1.15,3.53s-2.06,1.08-3.89,1.08H13.84c-.91,0-1.68-.36-2.3-1.08-.62-.72-.94-1.63-.94-2.74V25.94c0-4.51,1.39-7.79,4.18-9.83,2.78-2.04,7.27-3.06,13.46-3.06h9c1.58,0,2.82,.42,3.71,1.26,.89,.84,1.33,2.03,1.33,3.56s-.44,2.64-1.33,3.46c-.89,.82-2.12,1.22-3.71,1.22h-9.5c-2.4,0-4.13,.48-5.18,1.44-1.06,.96-1.58,2.52-1.58,4.68,0,.77-.05,1.72-.14,2.84-.1,1.13-.24,2.41-.43,3.85,.82-.67,1.85-1.21,3.1-1.62Z"/>
      <text class="cls-1" transform="translate(62.45 63.56)"><tspan class="cls-4" x="0" y="0">P</tspan><tspan class="cls-5" x="47.3" y="0">IC</tspan></text>
      <text class="cls-2" transform="translate(67.27 85.02)"><tspan class="cls-7" x="0" y="0">Re</tspan><tspan class="cls-6" x="41.56" y="0">c</tspan><tspan class="cls-9" x="60.5" y="0">i</tspan><tspan class="cls-3" x="75.14" y="0">pe</tspan></text>
    </g>
  </g>
</svg>